<?xml version="1.0" encoding="utf-8"?>
<!-- Generator: Adobe Illustrator 19.0.0, SVG Export Plug-In . SVG Version: 6.00 Build 0)  -->
<svg version="1.1" id="Слой_1" xmlns="http://www.w3.org/2000/svg" xmlns:xlink="http://www.w3.org/1999/xlink" x="0px" y="0px"
	 viewBox="-176 299.9 242 242" style="enable-background:new -176 299.9 242 242;" xml:space="preserve">
<style type="text/css">
	.st0{fill:#FFFFFF;}
	.st1{fill:#0B79B1;}
</style>
<g id="XMLID_2_">
	<circle id="XMLID_3_" class="st0" cx="-55" cy="420.9" r="120"/>
	<g id="XMLID_1_">
		<g id="XMLID_286_">
			<path id="XMLID_318_" class="st1" d="M-136.6,427l-1.7-5.1h-7.3l-1.7,5.1h-3.1l6.9-19h3.2l6.9,19H-136.6z M-142,411.1l-2.8,8.3
				h5.7L-142,411.1L-142,411.1z"/>
			<path id="XMLID_315_" class="st1" d="M-126.6,427.1c-1.8,0-3.3-0.7-4.4-2c-1.1-1.3-1.7-3.1-1.7-5.3c0-2.2,0.6-4,1.7-5.3
				c1.1-1.3,2.6-2,4.3-2c1,0,1.9,0.2,2.7,0.7c0.8,0.4,1.4,1.1,1.8,1.9h0.1v-7.9h2.8v19.9h-2.7v-2.4h-0.1c-0.4,0.8-1,1.5-1.8,1.9
				C-124.7,426.9-125.6,427.1-126.6,427.1z M-125.9,415c-1.2,0-2.1,0.4-2.8,1.3s-1.1,2.1-1.1,3.5c0,1.5,0.3,2.7,1,3.6
				c0.7,0.9,1.6,1.3,2.8,1.3s2.1-0.4,2.8-1.3c0.7-0.9,1.1-2.1,1.1-3.5c0-1.4-0.4-2.6-1.1-3.5C-123.9,415.5-124.8,415-125.9,415z"/>
			<path id="XMLID_312_" class="st1" d="M-110.8,427.1c-1.8,0-3.3-0.7-4.4-2c-1.1-1.3-1.7-3.1-1.7-5.3c0-2.2,0.6-4,1.7-5.3
				c1.1-1.3,2.6-2,4.3-2c1,0,1.9,0.2,2.7,0.7c0.8,0.4,1.4,1.1,1.8,1.9h0.1v-7.9h2.8v19.9h-2.8v-2.4h-0.1c-0.4,0.8-1,1.5-1.8,1.9
				C-108.9,426.9-109.8,427.1-110.8,427.1z M-110.1,415c-1.2,0-2.1,0.4-2.8,1.3c-0.7,0.9-1.1,2.1-1.1,3.5c0,1.5,0.3,2.7,1,3.6
				c0.7,0.9,1.6,1.3,2.8,1.3s2.1-0.4,2.8-1.3c0.7-0.9,1.1-2.1,1.1-3.5c0-1.4-0.4-2.6-1.1-3.5C-108.1,415.5-109,415-110.1,415z"/>
			<path id="XMLID_309_" class="st1" d="M-86.8,412.5c1.8,0,3.3,0.7,4.4,2c1.1,1.3,1.7,3.1,1.7,5.3c0,2.2-0.5,4-1.6,5.3
				c-1.1,1.3-2.5,2-4.3,2c-1,0-1.9-0.2-2.7-0.7c-0.8-0.4-1.4-1-1.8-1.8h-0.1v7h-2.9v-19h2.8v2.4h0.1c0.4-0.8,1-1.4,1.8-1.8
				C-88.7,412.8-87.8,412.5-86.8,412.5z M-87.5,424.7c1.2,0,2.1-0.4,2.8-1.3c0.7-0.9,1.1-2.1,1.1-3.5c0-1.4-0.4-2.7-1.1-3.5
				c-0.7-0.8-1.6-1.3-2.8-1.3c-1.1,0-2.1,0.4-2.8,1.3c-0.7,0.9-1.1,2.1-1.1,3.5c0,1.5,0.4,2.6,1.1,3.5
				C-89.6,424.3-88.7,424.7-87.5,424.7z"/>
			<path id="XMLID_307_" class="st1" d="M-78.3,427v-19.9h2.8v8h0.1c0.9-1.7,2.4-2.6,4.7-2.6c1.6,0,2.8,0.5,3.8,1.5s1.4,2.3,1.4,3.9
				v9.1h-2.8v-8.6c0-1.1-0.3-1.9-0.9-2.5c-0.6-0.6-1.4-0.9-2.5-0.9s-2,0.4-2.7,1.1c-0.7,0.7-1,1.6-1,2.8v8.2h-2.9V427z"/>
			<path id="XMLID_304_" class="st1" d="M-51.6,425.2c-1.2,1.3-2.9,2-4.9,2s-3.7-0.7-4.9-2c-1.2-1.3-1.8-3.1-1.8-5.4
				c0-2.2,0.6-4,1.8-5.4c1.2-1.3,2.9-2,4.9-2s3.7,0.7,4.9,2c1.2,1.3,1.8,3.1,1.8,5.4C-49.8,422.1-50.4,423.9-51.6,425.2z
				 M-59.4,423.5c0.7,0.9,1.6,1.3,2.8,1.3s2.2-0.4,2.8-1.3c0.7-0.9,1-2.1,1-3.7s-0.3-2.8-1-3.7s-1.6-1.3-2.8-1.3s-2.2,0.4-2.8,1.3
				c-0.6,0.9-1,2.1-1,3.7S-60.1,422.6-59.4,423.5z"/>
			<path id="XMLID_302_" class="st1" d="M-46.7,409.5h2.8v3.2h2.7v2.3h-2.7v8c0,0.6,0.1,1.1,0.4,1.4c0.3,0.3,0.7,0.4,1.3,0.4
				c0.3,0,0.7,0,1-0.1v2.3c-0.4,0.1-0.9,0.1-1.6,0.1c-1.4,0-2.5-0.3-3.1-0.9s-0.9-1.6-0.9-3v-8.3h-2v-2.3h2v-3.1H-46.7z"/>
			<path id="XMLID_299_" class="st1" d="M-27.9,425.2c-1.2,1.3-2.9,2-4.9,2s-3.7-0.7-4.9-2c-1.2-1.3-1.8-3.1-1.8-5.4
				c0-2.2,0.6-4,1.8-5.4c1.2-1.4,2.9-2,4.9-2c2.1,0,3.7,0.7,4.9,2c1.2,1.3,1.8,3.1,1.8,5.4C-26.1,422.1-26.7,423.9-27.9,425.2z
				 M-35.7,423.5c0.7,0.9,1.6,1.3,2.8,1.3s2.2-0.4,2.8-1.3c0.7-0.9,1-2.1,1-3.7s-0.3-2.8-1-3.7s-1.6-1.3-2.8-1.3s-2.2,0.4-2.8,1.3
				c-0.6,0.9-1,2.1-1,3.7S-36.4,422.6-35.7,423.5z"/>
			<path id="XMLID_296_" class="st1" d="M-13.4,427.1c-1.4,0-2.6-0.4-3.5-1.2c-0.9-0.8-1.3-1.8-1.3-3.1c0-1.2,0.5-2.2,1.4-2.9
				c0.9-0.7,2.3-1.1,4.1-1.2l3.9-0.2v-1.1c0-0.8-0.3-1.4-0.8-1.9c-0.5-0.4-1.3-0.7-2.2-0.7c-0.8,0-1.4,0.2-2,0.6
				c-0.5,0.4-0.9,0.9-1,1.5h-2.7c0-1.3,0.6-2.3,1.7-3.2s2.4-1.3,4-1.3c1.7,0,3.1,0.4,4.2,1.3c1,0.9,1.6,2,1.6,3.4v9.8h-2.7v-2.4
				h-0.1c-0.4,0.8-1,1.4-1.8,1.8C-11.4,426.7-12.4,427.1-13.4,427.1z M-12.6,424.9c1.1,0,2-0.3,2.7-0.9c0.7-0.6,1.1-1.4,1.1-2.3
				v-1.1l-3.5,0.2c-2,0.1-3,0.8-3,2.1c0,0.6,0.2,1.1,0.7,1.5C-14.1,424.8-13.4,424.9-12.6,424.9z"/>
			<path id="XMLID_294_" class="st1" d="M-3.4,416.7c0-1.3,0.5-2.3,1.5-3.1c1-0.8,2.4-1.2,4-1.2s2.9,0.4,3.9,1.2
				c1,0.8,1.6,1.8,1.6,3.1H4.9c-0.1-0.6-0.3-1.1-0.9-1.5s-1.2-0.6-2-0.6s-1.5,0.2-2,0.5c-0.5,0.3-0.7,0.8-0.7,1.4
				c0,0.9,0.7,1.5,2.2,1.8l2.4,0.6c1.4,0.4,2.5,0.8,3.1,1.4s0.9,1.4,0.9,2.5c0,1.3-0.5,2.3-1.6,3.1s-2.5,1.2-4.2,1.2s-3-0.4-4.1-1.2
				c-1.1-0.8-1.6-1.8-1.7-3.1h2.8c0.1,0.7,0.4,1.2,1,1.6c0.5,0.4,1.3,0.5,2.2,0.5s1.6-0.2,2.1-0.5c0.5-0.3,0.8-0.8,0.8-1.4
				c0-0.5-0.2-0.8-0.5-1.1c-0.3-0.3-0.8-0.5-1.6-0.7l-2.6-0.6C-2.1,420-3.4,418.7-3.4,416.7z"/>
			<path id="XMLID_292_" class="st1" d="M10,416.7c0-1.3,0.5-2.3,1.5-3.1c1-0.8,2.4-1.2,4-1.2s2.9,0.4,3.9,1.2
				c1,0.8,1.6,1.8,1.6,3.1h-2.7c-0.1-0.6-0.3-1.1-0.9-1.5s-1.2-0.6-2-0.6s-1.5,0.2-2,0.5c-0.5,0.3-0.7,0.8-0.7,1.4
				c0,0.9,0.7,1.5,2.2,1.8l2.4,0.6c1.4,0.4,2.5,0.8,3.1,1.4s0.9,1.4,0.9,2.5c0,1.3-0.5,2.3-1.6,3.1s-2.5,1.2-4.2,1.2s-3-0.4-4.1-1.2
				c-1.1-0.8-1.6-1.8-1.7-3.1h2.8c0.1,0.7,0.4,1.2,1,1.6c0.5,0.4,1.3,0.5,2.2,0.5s1.6-0.2,2.1-0.5c0.5-0.3,0.8-0.8,0.8-1.4
				c0-0.5-0.2-0.8-0.5-1.1c-0.3-0.3-0.8-0.5-1.6-0.7l-2.6-0.6C11.3,420,10,418.7,10,416.7z"/>
			<path id="XMLID_289_" class="st1" d="M33.2,422.8h2.7c-0.2,1.3-0.9,2.3-2,3.1c-1.1,0.8-2.5,1.2-4.1,1.2c-2.1,0-3.7-0.7-4.9-2
				c-1.2-1.3-1.8-3.1-1.8-5.3c0-2.2,0.6-4,1.8-5.4c1.2-1.4,2.8-2,4.8-2s3.5,0.6,4.7,1.9c1.2,1.3,1.7,3,1.7,5.2v1H26v0.2
				c0,1.2,0.4,2.2,1.1,3c0.7,0.8,1.7,1.1,2.8,1.1c0.8,0,1.6-0.2,2.2-0.6C32.7,423.8,33,423.4,33.2,422.8z M29.6,414.8
				c-1,0-1.9,0.3-2.6,1c-0.7,0.7-1.1,1.6-1.1,2.7h7.3c0-1.1-0.4-2-1-2.7C31.6,415.1,30.7,414.8,29.6,414.8z"/>
			<path id="XMLID_287_" class="st1" d="M39.2,409.5H42v3.2h2.7v2.3H42v8c0,0.6,0.1,1.1,0.4,1.4c0.3,0.3,0.7,0.4,1.3,0.4
				c0.3,0,0.7,0,1-0.1v2.3c-0.4,0.1-0.9,0.1-1.6,0.1c-1.4,0-2.5-0.3-3.1-0.9s-0.9-1.6-0.9-3v-8.3h-2v-2.3h2v-3.1H39.2z"/>
		</g>
	</g>
</g>
</svg>
