<?xml version="1.0" encoding="utf-8"?>
<!-- Generator: Adobe Illustrator 19.0.0, SVG Export Plug-In . SVG Version: 6.00 Build 0)  -->
<svg version="1.1" id="Слой_1" xmlns="http://www.w3.org/2000/svg" xmlns:xlink="http://www.w3.org/1999/xlink" x="0px" y="0px"
	 viewBox="-105 380.9 80 80" style="enable-background:new -105 380.9 80 80;" xml:space="preserve">
<style type="text/css">
	.st0{fill:#0B79B1;}
	.st1{fill:#7F7F7F;}
</style>
<g>
	<path class="st0" d="M-52,417.4c2,0,1-1,0-1h-4v-3c0-1-0.5-2-1.5-2H-61v-4c0-1-1-1-1,0v4h-3v-4c0-1-1-1-1,0v4h-3v-4c0-1-1-1-1,0v4
		h-2.5c-1,0-2.5,1-2.5,2v4h-4c-1,0,0,1,0,1h4v3h-4c-1,0,0,1,0,1h4v3h-4c-1,0,0,1,0,1h4v2c0,1,1.5,2,2.5,2h2.5v4c0,1,1,1,1,0v-4h3v4
		c0,1,1,1,1,0v-4h3v4c0,1,1,1,1,0v-4h3.5c1,0,1.5-0.9,1.5-2v-3h4c2,0,1-1,0-1h-4v-3h4c2,0,1-1,0-1h-4v-3H-52z M-57,429.4h-7v-2
		c0-0.2,0,0.2,0,0l-3-3v-2c1-0.4,1.5-1.2,1.3-2c-0.2-0.6-0.5-1.3-1.4-1.4c-0.5,0-1.7,0.3-1.7,1.4c0,0.7,0.8,1.7,0.8,2v2
		c0,0.2,0-0.2,0,0l3,3v2h-9v-17h7v3c0,0.2-0.2,0.8,0,1l3,3v1c0,0.4-1,1.2-0.7,2c0,0.9,1,1.4,1.6,1.4c0.3,0,1.3-0.3,1.3-1.4
		c0-1.1-0.2-1.7-1.2-2v-1c0-0.2,0.2-0.8,0-1l-3-3v-3h9V429.4z"/>
	<g>
		<g>
			<path class="st1" d="M-65,381.9c21.5,0,39,17.5,39,39s-17.5,39-39,39s-39-17.5-39-39S-86.5,381.9-65,381.9 M-65,380.9
				c-22.1,0-40,17.9-40,40s17.9,40,40,40s40-17.9,40-40S-42.9,380.9-65,380.9L-65,380.9z"/>
		</g>
	</g>
</g>
</svg>
